<svg width="96" height="96" viewBox="0 0 96 96" fill="none" xmlns="http://www.w3.org/2000/svg">
<mask id="mask0_698_4542" style="mask-type:alpha" maskUnits="userSpaceOnUse" x="0" y="0" width="96" height="96">
<rect width="96" height="96" fill="#D9D9D9"/>
</mask>
<g mask="url(#mask0_698_4542)">
<path d="M79.1 90.4992L68.6 79.9992H16V68.7992C16 66.5326 16.584 64.4486 17.752 62.5472C18.9173 60.6486 20.4667 59.1992 22.4 58.1992C25.4 56.6659 28.4507 55.4326 31.552 54.4992C34.6507 53.5659 37.8 52.8659 41 52.3992L5.5 16.8992L11.2 11.1992L84.8 84.7992L79.1 90.4992ZM24 71.9992H60.6L48.6 59.9992H48C44.2667 59.9992 40.5667 60.4486 36.9 61.3472C33.2333 62.2486 29.6 63.5992 26 65.3992C25.4 65.7326 24.9173 66.1992 24.552 66.7992C24.184 67.3992 24 68.0659 24 68.7992V71.9992ZM73.6 58.1992C75.5333 59.1326 77.0667 60.5499 78.2 62.4512C79.3333 64.3499 79.9333 66.3992 80 68.5992L66.6 55.1992C67.8 55.6659 68.984 56.1325 70.152 56.5992C71.3173 57.0659 72.4667 57.5992 73.6 58.1992ZM56.8 45.3992L50.9 39.4992C52.4333 38.8992 53.6667 37.9152 54.6 36.5472C55.5333 35.1819 56 33.6659 56 31.9992C56 29.7992 55.2173 27.9166 53.652 26.3512C52.084 24.7832 50.2 23.9992 48 23.9992C46.3333 23.9992 44.8173 24.4659 43.452 25.3992C42.084 26.3326 41.1 27.5659 40.5 29.0992L34.6 23.1992C36.1333 20.9326 38.0667 19.1659 40.4 17.8992C42.7333 16.6326 45.2667 15.9992 48 15.9992C52.4 15.9992 56.1667 17.5659 59.3 20.6992C62.4333 23.8326 64 27.5992 64 31.9992C64 34.7326 63.3667 37.2659 62.1 39.5992C60.8333 41.9326 59.0667 43.8659 56.8 45.3992Z" fill="#4E4D4E"/>
</g>
</svg>
