<svg width="24" height="24" viewBox="0 0 24 24" fill="none" xmlns="http://www.w3.org/2000/svg">
<mask id="mask0_182_5813" style="mask-type:alpha" maskUnits="userSpaceOnUse" x="0" y="0" width="24" height="24">
<rect width="24" height="24" fill="#D9D9D9"/>
</mask>
<g mask="url(#mask0_182_5813)">
<path d="M5.3 20.5C4.8 20.5 4.375 20.325 4.025 19.975C3.675 19.625 3.5 19.2 3.5 18.7V5.3C3.5 4.8 3.675 4.375 4.025 4.025C4.375 3.675 4.8 3.5 5.3 3.5H18.7C19.2 3.5 19.625 3.675 19.975 4.025C20.325 4.375 20.5 4.8 20.5 5.3V18.7C20.5 19.2 20.325 19.625 19.975 19.975C19.625 20.325 19.2 20.5 18.7 20.5H5.3ZM5.3 19H11.25V5H5.3C5.23333 5 5.16667 5.03333 5.1 5.1C5.03333 5.16667 5 5.23333 5 5.3V18.7C5 18.7667 5.03333 18.8333 5.1 18.9C5.16667 18.9667 5.23333 19 5.3 19ZM12.75 19H18.7C18.7667 19 18.8333 18.9667 18.9 18.9C18.9667 18.8333 19 18.7667 19 18.7V12H12.75V19ZM12.75 10.5H19V5.3C19 5.23333 18.9667 5.16667 18.9 5.1C18.8333 5.03333 18.7667 5 18.7 5H12.75V10.5Z" fill="#6A6A6B"/>
</g>
</svg>
