<svg width="24" height="24" viewBox="0 0 24 24" fill="none" xmlns="http://www.w3.org/2000/svg">
<mask id="mask0_814_2128" style="mask-type:alpha" maskUnits="userSpaceOnUse" x="0" y="0" width="24" height="24">
<rect width="24" height="24" fill="#D9D9D9"/>
</mask>
<g mask="url(#mask0_814_2128)">
<path d="M2.5 20.5V19H4.5V3.5H19.5V19H21.5V20.5H2.5ZM6 19H10.2C10.0667 17.7667 9.65833 16.529 8.975 15.287C8.29167 14.0457 7.3 13.25 6 12.9V19ZM6 5V11.1C7.3 10.75 8.29167 9.954 8.975 8.712C9.65833 7.47067 10.0667 6.23333 10.2 5H6ZM7.675 12C8.89167 12.6667 9.83733 13.6627 10.512 14.988C11.1873 16.3127 11.5833 17.65 11.7 19H12.3C12.4167 17.65 12.8127 16.3127 13.488 14.988C14.1627 13.6627 15.1083 12.6667 16.325 12C15.0917 11.3333 14.1417 10.3373 13.475 9.012C12.8083 7.68733 12.4167 6.35 12.3 5H11.7C11.5833 6.35 11.1873 7.68733 10.512 9.012C9.83733 10.3373 8.89167 11.3333 7.675 12ZM18 5H13.8C13.9333 6.23333 14.3377 7.47067 15.013 8.712C15.6877 9.954 16.6833 10.75 18 11.1V5ZM18 19V12.9C16.6833 13.25 15.6917 14.0457 15.025 15.287C14.3583 16.529 13.9583 17.7667 13.825 19H18Z" fill="#6A6A6B"/>
</g>
</svg>
