<svg width="232" height="149" viewBox="0 0 232 149" fill="none" xmlns="http://www.w3.org/2000/svg">
<path d="M77.8344 102.37L85.1568 106.847L87.4428 108.271L96.3348 114.55L103.238 116.486L116.672 121.857L133.94 124.76L146.399 122.491L156.648 120.218L165.383 115.059L174.012 107.912L182.123 101.161L188.36 93.7905L193.043 88.0917L192.079 81.7047L187.191 69.2195L182.578 61.3618L178.329 57.1306L172.286 52.7319L162.284 45.8246L153.364 41.6823L144.588 38.6434L139.471 38.3275L129.727 39.4366L115.471 38.8331L104.064 43.299L100.446 42.3963L83.8316 51.2202L73.7974 56.9848L71.2771 62.3201L69.2363 71.3332L68.1142 82.6924L69.0407 93.153L70.6482 97.2588L77.8344 102.37Z" fill="#FFBA29"/>
<path d="M102 58C98.3498 58.4563 89.3534 64.3196 87 67.5556C85.3722 69.7938 83.4599 72.77 81 74" stroke="#664500" stroke-width="10" stroke-linecap="round"/>
<path d="M79 59C81.5755 59.8585 84.6855 64.5706 86.8889 66.3333C89.101 68.103 91.1109 69.1727 93.5 70.5C95.3009 71.5005 97.1172 73.2344 98 75" stroke="#664500" stroke-width="10" stroke-linecap="round"/>
<path d="M154 58C148.633 62.8306 139.401 65.1979 136 72" stroke="#664500" stroke-width="10" stroke-linecap="round"/>
<path d="M138 57C141.859 60.4728 143.802 64.9775 147.222 68.7778C148.601 70.3097 149.024 73.012 151 74" stroke="#664500" stroke-width="10" stroke-linecap="round"/>
<path d="M126 109C128.261 108.717 131.867 101.528 133.444 99.5C135.111 97.3569 136.432 98 139.389 98C150.259 98 161.13 98 172 98" stroke="#664500" stroke-width="10" stroke-linecap="round"/>
<path d="M63.0786 113.803C65.0085 114.622 66.2183 115.928 66.7079 117.721C67.1969 119.514 66.8994 121.32 65.8153 123.138L56.2031 139.154C54.8987 141.28 53.091 142.723 50.7798 143.484C48.4702 144.246 46.1802 144.144 43.9097 143.181L21.4319 133.639C19.1614 132.676 17.4978 131.099 16.441 128.908C15.3828 126.717 15.1653 124.414 15.7885 121.999L20.6327 103.959C21.187 101.916 22.2792 100.448 23.9093 99.5536C25.5388 98.6608 27.3184 98.6239 29.2484 99.4431C30.043 99.7804 30.7205 100.236 31.2809 100.81C31.8419 101.382 32.2857 102.072 32.6124 102.881L35.5525 110.158L50.9918 116.711L58.2689 113.771C59.0774 113.445 59.8824 113.284 60.6837 113.29C61.4856 113.295 62.2839 113.466 63.0786 113.803ZM29.0285 115.427C28.3852 115.154 27.7538 115.143 27.1343 115.395C26.514 115.644 26.0673 116.091 25.7942 116.734C25.5212 117.377 25.5101 118.009 25.761 118.63C26.011 119.249 26.4576 119.695 27.1009 119.968C27.7442 120.241 28.3753 120.253 28.9941 120.003C29.6151 119.752 30.0621 119.305 30.3352 118.662C30.6082 118.018 30.619 117.387 30.3675 116.767C30.1181 116.147 29.6718 115.7 29.0285 115.427ZM30.6781 124.166C30.0348 123.893 29.4027 123.882 28.7817 124.133C28.1629 124.383 27.717 124.83 27.4439 125.473C27.1708 126.116 27.159 126.748 27.4084 127.368C27.6599 127.988 28.1073 128.434 28.7506 128.707C29.3939 128.98 30.025 128.992 30.6438 128.742C31.2648 128.491 31.7118 128.044 31.9849 127.4C32.2579 126.757 32.2687 126.126 32.0172 125.506C31.7678 124.886 31.3214 124.439 30.6781 124.166ZM50.0304 124.342L46.6247 122.896L44.9381 126.87L40.9648 125.183L39.5191 128.589L43.4925 130.275L41.8059 134.249L45.2116 135.694L46.8982 131.721L50.8716 133.408L52.3172 130.002L48.3438 128.315L50.0304 124.342Z" fill="white"/>
<mask id="mask0_2_193" style="mask-type:alpha" maskUnits="userSpaceOnUse" x="7" y="36" width="55" height="55">
<path d="M61.0891 68.2428L28.8464 90.0892L6.99999 57.8464L39.2427 36L61.0891 68.2428Z" fill="#D9D9D9"/>
</mask>
<g mask="url(#mask0_2_193)">
<path d="M37.6813 46.8588C38.8232 46.085 39.9768 45.883 41.142 46.2526C42.3078 46.6232 43.1993 47.4325 43.8162 48.6806L49.2326 59.7123C49.9414 61.1922 50.0932 62.7066 49.688 64.2552C49.2837 65.8033 48.4099 67.0324 47.0664 67.9427L33.7663 76.9543C32.4228 77.8646 30.9573 78.2205 29.3697 78.0221C27.7812 77.8243 26.431 77.1219 25.3193 75.915L17.0816 66.7949C16.1512 65.7592 15.73 64.6313 15.818 63.4111C15.9067 62.1919 16.522 61.1955 17.6639 60.4217C18.1341 60.1031 18.6278 59.8915 19.1449 59.7868C19.6614 59.6812 20.2014 59.6825 20.7648 59.7908L25.8357 60.7655L34.9711 54.5757L35.9458 49.5048C36.0541 48.9414 36.253 48.4394 36.5426 47.9988C36.8315 47.5574 37.2111 47.1774 37.6813 46.8588ZM26.417 66.2523C26.0363 66.5102 25.8049 66.8552 25.7226 67.2873C25.6388 67.7191 25.7259 68.1253 25.9838 68.506C26.2417 68.8866 26.587 69.1185 27.0197 69.2017C27.4509 69.2846 27.8569 69.1971 28.2375 68.9392C28.6182 68.6813 28.8499 68.3367 28.9328 67.9055C29.016 67.4728 28.9286 67.0661 28.6707 66.6855C28.4128 66.3048 28.0678 66.0733 27.6357 65.9911C27.2039 65.9073 26.7976 65.9944 26.417 66.2523ZM31.8347 68.4621C31.454 68.72 31.2221 69.0653 31.139 69.498C31.0561 69.9292 31.1436 70.3352 31.4015 70.7158C31.6594 71.0964 32.0043 71.3287 32.4361 71.4124C32.8682 71.4947 33.2746 71.4069 33.6552 71.149C34.0359 70.8911 34.2676 70.5465 34.3505 70.1153C34.4337 69.6826 34.3463 69.2759 34.0884 68.8953C33.8305 68.5146 33.4855 68.2832 33.0534 68.2009C32.6216 68.1171 32.2153 68.2042 31.8347 68.4621ZM38.8439 57.8323L36.8287 59.1977L38.4217 61.5487L36.0706 63.1417L37.436 65.1569L39.7871 63.5639L41.38 65.9149L43.3952 64.5495L41.8022 62.1985L44.1533 60.6055L42.7879 58.5904L40.4368 60.1833L38.8439 57.8323Z" fill="white"/>
</g>
<path d="M100.25 46.75C104.457 46.3994 108.476 44.5 112.722 44.5C115.943 44.5 119.021 44 122.194 44C124.858 44 127.724 43.6997 130.361 44.125C131.846 44.3644 134.513 43.6751 135.75 44.5" stroke="#FFBA29" stroke-width="10" stroke-linecap="round"/>
<path d="M87.25 50.5C88.5 50.5 89.5587 50.0312 90.7361 49.6528C91.7242 49.3352 92.8203 49.2729 93.8056 48.9444C95.6422 48.3322 97.7349 47.9376 99.5 47.1944C101.452 46.3727 103.41 45.8869 105.444 45.3056C108.122 44.5404 110.964 44.6799 113.694 44.1944C117.387 43.5379 121.026 43.5 124.806 43.5C128.034 43.5 131.331 43.25 134.5 43.25" stroke="#FFBA29" stroke-width="10" stroke-linecap="round"/>
<path d="M133.889 4C122.165 4 92 -0.694686 92 17C85.7599 29.4803 134.55 23.7967 140.389 22C145.232 20.5099 152.166 14.674 152.944 9.61111C154.059 2.36983 136.66 4 133.889 4Z" stroke="white" stroke-width="6" stroke-linecap="round"/>
<path d="M159 20C162.005 17.3293 166.222 17.5559 169.222 15.2222C170.232 14.4367 169.871 19.3392 170.222 19.7778C171.405 21.2562 171.954 22.4311 173 24" stroke="white" stroke-width="3" stroke-linecap="round"/>
<path d="M161 28C161.131 29.0506 162.208 30.6039 163 31" stroke="white" stroke-width="3" stroke-linecap="round"/>
<path d="M157 35C160.552 34.6448 163.946 32.2219 167.556 31.5C169.972 31.0167 171.963 31.0185 174 30" stroke="white" stroke-width="3" stroke-linecap="round"/>
<path d="M183 22C183 19.6503 184.795 19 187 19" stroke="white" stroke-width="3" stroke-linecap="round"/>
<path d="M184 43C187.873 42.5697 188.279 38 193 38C200.614 38 202.523 41.228 201.222 48.2222C200.363 52.8396 200.601 50.0809 198.222 52.2222C196.912 53.4014 197 55.4287 197 57C197 60.877 205.818 59.3632 207 57" stroke="white" stroke-width="3" stroke-linecap="round"/>
<path d="M195 73C202.605 71.2889 211.166 69 219 69" stroke="white" stroke-width="3" stroke-linecap="round"/>
<path d="M177 12C179.792 16.7699 181.358 21.0731 183 26" stroke="white" stroke-width="3" stroke-linecap="round"/>
<path d="M205 66V69" stroke="white" stroke-width="3" stroke-linecap="round"/>
<path d="M205 86C205 87.9645 202.548 102.226 201 103" stroke="white" stroke-width="3" stroke-linecap="round"/>
<path d="M202 96C205.634 96.654 208.904 97.4522 212 99" stroke="white" stroke-width="3" stroke-linecap="round"/>
<path d="M221 82C221.534 88.9461 224 95.3457 224 102" stroke="white" stroke-width="3" stroke-linecap="round"/>
<path d="M223 92C225.403 92 227.561 91 230 91" stroke="white" stroke-width="3" stroke-linecap="round"/>
</svg>
