<svg width="48" height="48" viewBox="0 0 48 48" fill="none" xmlns="http://www.w3.org/2000/svg">
<rect width="48" height="48" rx="24" fill="#6A6A6B"/>
<mask id="mask0_259_3257" style="mask-type:alpha" maskUnits="userSpaceOnUse" x="12" y="12" width="56" height="56">
<rect x="12" y="12" width="56" height="56" fill="#D9D9D9"/>
</mask>
<g mask="url(#mask0_259_3257)">
<path d="M23.9998 23.9998C22.4598 23.9998 21.1415 23.4515 20.0448 22.3548C18.9481 21.2581 18.3998 19.9398 18.3998 18.3998C18.3998 16.8598 18.9481 15.5415 20.0448 14.4448C21.1415 13.3481 22.4598 12.7998 23.9998 12.7998C25.5398 12.7998 26.8581 13.3481 27.9548 14.4448C29.0515 15.5415 29.5998 16.8598 29.5998 18.3998C29.5998 19.9398 29.0515 21.2581 27.9548 22.3548C26.8581 23.4515 25.5398 23.9998 23.9998 23.9998ZM12.7998 35.1998V31.2798C12.7998 30.4865 13.0042 29.7571 13.413 29.0916C13.8209 28.4271 14.3631 27.9198 15.0398 27.5698C16.4865 26.8465 17.9565 26.3037 19.4498 25.9416C20.9431 25.5804 22.4598 25.3998 23.9998 25.3998C25.5398 25.3998 27.0565 25.5804 28.5498 25.9416C30.0431 26.3037 31.5131 26.8465 32.9598 27.5698C33.6365 27.9198 34.1787 28.4271 34.5866 29.0916C34.9954 29.7571 35.1998 30.4865 35.1998 31.2798V35.1998H12.7998Z" fill="white"/>
</g>
</svg>
