<svg width="24" height="24" viewBox="0 0 24 24" fill="none" xmlns="http://www.w3.org/2000/svg">
<mask id="mask0_182_5816" style="mask-type:alpha" maskUnits="userSpaceOnUse" x="0" y="0" width="24" height="24">
<rect width="24" height="24" fill="#D9D9D9"/>
</mask>
<g mask="url(#mask0_182_5816)">
<path d="M4.7248 19.75C3.74147 19.75 2.92914 19.4083 2.2878 18.725C1.6458 18.0417 1.31647 17.2417 1.2998 16.325C1.2998 16.1917 1.30814 16.05 1.3248 15.9C1.34147 15.75 1.36647 15.6083 1.3998 15.475L3.4998 7.075C3.71647 6.25833 4.16247 5.58333 4.8378 5.05C5.51247 4.51667 6.2748 4.25 7.1248 4.25H16.8748C17.7248 4.25 18.4875 4.51667 19.1628 5.05C19.8375 5.58333 20.2831 6.25833 20.4998 7.075L22.5998 15.475C22.6331 15.625 22.6625 15.7707 22.6878 15.912C22.7125 16.054 22.7248 16.2 22.7248 16.35C22.7248 17.2833 22.3958 18.0833 21.7378 18.75C21.0791 19.4167 20.2581 19.75 19.2748 19.75C18.6248 19.75 18.0205 19.5793 17.4618 19.238C16.9038 18.896 16.4831 18.425 16.1998 17.825L15.4748 16.375C15.3915 16.175 15.2498 16.0207 15.0498 15.912C14.8498 15.804 14.6248 15.75 14.3748 15.75H9.6248C9.3748 15.75 9.1498 15.804 8.9498 15.912C8.7498 16.0207 8.60814 16.175 8.5248 16.375L7.7998 17.825C7.51647 18.425 7.09547 18.896 6.53681 19.238C5.97881 19.5793 5.3748 19.75 4.7248 19.75ZM4.7998 18.25C5.13314 18.25 5.4458 18.1667 5.7378 18C6.02914 17.8333 6.27481 17.5667 6.4748 17.2L7.1748 15.75C7.40814 15.2833 7.74147 14.9167 8.1748 14.65C8.60814 14.3833 9.09147 14.25 9.6248 14.25H14.3748C14.8915 14.25 15.3705 14.3873 15.8118 14.662C16.2538 14.9373 16.5998 15.3083 16.8498 15.775L17.5498 17.2C17.7498 17.5667 17.9958 17.8333 18.2878 18C18.5791 18.1667 18.8915 18.25 19.2248 18.25C19.7248 18.25 20.1748 18.0793 20.5748 17.738C20.9748 17.396 21.1831 16.9417 21.1998 16.375V16.113C21.1998 16.021 21.1831 15.9333 21.1498 15.85L19.0498 7.475C18.9165 6.95833 18.6498 6.54167 18.2498 6.225C17.8498 5.90833 17.3915 5.75 16.8748 5.75H7.1248C6.60814 5.75 6.1458 5.90833 5.7378 6.225C5.32914 6.54167 5.06647 6.95833 4.9498 7.475L2.8498 15.85C2.83314 15.9333 2.81647 16.1 2.7998 16.35C2.7998 16.9167 3.00814 17.375 3.4248 17.725C3.84147 18.075 4.2998 18.25 4.7998 18.25ZM13.4998 10.875C13.2498 10.875 13.0415 10.7917 12.8748 10.625C12.7081 10.4583 12.6248 10.25 12.6248 10C12.6248 9.75 12.7081 9.54167 12.8748 9.375C13.0415 9.20833 13.2498 9.125 13.4998 9.125C13.7498 9.125 13.9581 9.20833 14.1248 9.375C14.2915 9.54167 14.3748 9.75 14.3748 10C14.3748 10.25 14.2915 10.4583 14.1248 10.625C13.9581 10.7917 13.7498 10.875 13.4998 10.875ZM15.4998 8.875C15.2498 8.875 15.0415 8.79167 14.8748 8.625C14.7081 8.45833 14.6248 8.25 14.6248 8C14.6248 7.75 14.7081 7.54167 14.8748 7.375C15.0415 7.20833 15.2498 7.125 15.4998 7.125C15.7498 7.125 15.9581 7.20833 16.1248 7.375C16.2915 7.54167 16.3748 7.75 16.3748 8C16.3748 8.25 16.2915 8.45833 16.1248 8.625C15.9581 8.79167 15.7498 8.875 15.4998 8.875ZM15.4998 12.875C15.2498 12.875 15.0415 12.7917 14.8748 12.625C14.7081 12.4583 14.6248 12.25 14.6248 12C14.6248 11.75 14.7081 11.5417 14.8748 11.375C15.0415 11.2083 15.2498 11.125 15.4998 11.125C15.7498 11.125 15.9581 11.2083 16.1248 11.375C16.2915 11.5417 16.3748 11.75 16.3748 12C16.3748 12.25 16.2915 12.4583 16.1248 12.625C15.9581 12.7917 15.7498 12.875 15.4998 12.875ZM17.4998 10.875C17.2498 10.875 17.0415 10.7917 16.8748 10.625C16.7081 10.4583 16.6248 10.25 16.6248 10C16.6248 9.75 16.7081 9.54167 16.8748 9.375C17.0415 9.20833 17.2498 9.125 17.4998 9.125C17.7498 9.125 17.9581 9.20833 18.1248 9.375C18.2915 9.54167 18.3748 9.75 18.3748 10C18.3748 10.25 18.2915 10.4583 18.1248 10.625C17.9581 10.7917 17.7498 10.875 17.4998 10.875ZM8.4998 12.35C8.3498 12.35 8.21247 12.2873 8.0878 12.162C7.96247 12.0373 7.89981 11.9 7.89981 11.75V10.6H6.7498C6.5998 10.6 6.46247 10.5373 6.3378 10.412C6.21247 10.2873 6.14981 10.15 6.14981 10C6.14981 9.85 6.21247 9.71233 6.3378 9.587C6.46247 9.46233 6.5998 9.4 6.7498 9.4H7.89981V8.25C7.89981 8.1 7.96247 7.96233 8.0878 7.837C8.21247 7.71233 8.3498 7.65 8.4998 7.65C8.6498 7.65 8.78714 7.71233 8.9118 7.837C9.03714 7.96233 9.0998 8.1 9.0998 8.25V9.4H10.2498C10.3998 9.4 10.5375 9.46233 10.6628 9.587C10.7875 9.71233 10.8498 9.85 10.8498 10C10.8498 10.15 10.7875 10.2873 10.6628 10.412C10.5375 10.5373 10.3998 10.6 10.2498 10.6H9.0998V11.75C9.0998 11.9 9.03714 12.0373 8.9118 12.162C8.78714 12.2873 8.6498 12.35 8.4998 12.35Z" fill="#6A6A6B"/>
</g>
</svg>
