<svg width="24" height="24" viewBox="0 0 24 24" fill="none" xmlns="http://www.w3.org/2000/svg">
<mask id="mask0_182_5301" style="mask-type:alpha" maskUnits="userSpaceOnUse" x="0" y="0" width="24" height="24">
<rect width="24" height="24" fill="#D9D9D9"/>
</mask>
<g mask="url(#mask0_182_5301)">
<path d="M11.7999 19.975C11.8832 19.975 11.9792 19.95 12.0879 19.9C12.1959 19.85 12.2749 19.8 12.3249 19.75L20.3249 11.75C20.5582 11.5167 20.7289 11.275 20.8369 11.025C20.9456 10.775 20.9999 10.5083 20.9999 10.225C20.9999 9.925 20.9456 9.64167 20.8369 9.375C20.7289 9.10833 20.5582 8.86667 20.3249 8.65L16.3249 4.65C16.1082 4.41667 15.8749 4.25 15.6249 4.15C15.3749 4.05 15.1082 4 14.8249 4C14.5416 4 14.2666 4.05 13.9999 4.15C13.7332 4.25 13.4916 4.41667 13.2749 4.65L12.6999 5.225L14.5499 7.075C14.7832 7.29167 14.9539 7.53733 15.0619 7.812C15.1706 8.08733 15.2249 8.375 15.2249 8.675C15.2249 9.275 15.0209 9.77933 14.6129 10.188C14.2042 10.596 13.6916 10.8 13.0749 10.8C12.7749 10.8 12.4876 10.754 12.2129 10.662C11.9376 10.5707 11.6916 10.4167 11.4749 10.2L9.59991 8.325L5.24991 12.65C5.16657 12.7333 5.10824 12.8207 5.07491 12.912C5.04157 13.004 5.02491 13.1 5.02491 13.2C5.02491 13.3833 5.08757 13.5417 5.21291 13.675C5.33757 13.8083 5.49157 13.875 5.67491 13.875C5.77491 13.875 5.87491 13.85 5.97491 13.8C6.07491 13.75 6.15824 13.7 6.22491 13.65L9.49991 10.35L10.5499 11.425L7.27491 14.7C7.20824 14.7667 7.15424 14.85 7.11291 14.95C7.07091 15.05 7.04991 15.15 7.04991 15.25C7.04991 15.4167 7.11657 15.5667 7.24991 15.7C7.38324 15.8333 7.53324 15.9 7.69991 15.9C7.79991 15.9 7.90424 15.875 8.01291 15.825C8.12091 15.775 8.19991 15.725 8.24991 15.675L11.6499 12.275L12.6999 13.325L9.32491 16.725C9.25824 16.7917 9.20391 16.875 9.16191 16.975C9.12057 17.075 9.09991 17.175 9.09991 17.275C9.09991 17.4583 9.16224 17.6127 9.28691 17.738C9.41224 17.8627 9.56657 17.925 9.74991 17.925C9.84991 17.925 9.94591 17.9083 10.0379 17.875C10.1292 17.8417 10.2166 17.7833 10.2999 17.7L13.6999 14.325L14.7499 15.375L11.3499 18.775C11.2666 18.8583 11.2082 18.95 11.1749 19.05C11.1416 19.15 11.1249 19.2417 11.1249 19.325C11.1249 19.5083 11.1916 19.6627 11.3249 19.788C11.4582 19.9127 11.6166 19.975 11.7999 19.975ZM11.7749 21.475C11.2082 21.475 10.7166 21.2793 10.2999 20.888C9.88324 20.496 9.65824 20.0083 9.62491 19.425C9.05824 19.375 8.58757 19.1707 8.21291 18.812C7.83757 18.454 7.63324 17.975 7.59991 17.375C6.99991 17.3417 6.51657 17.1373 6.14991 16.762C5.78324 16.3873 5.59157 15.9167 5.57491 15.35C4.97491 15.3 4.48324 15.0793 4.09991 14.688C3.71657 14.296 3.52491 13.8 3.52491 13.2C3.52491 12.9 3.57924 12.6083 3.68791 12.325C3.79591 12.0417 3.95824 11.8 4.17491 11.6L9.59991 6.2L12.5249 9.125C12.5749 9.19167 12.6499 9.24567 12.7499 9.287C12.8499 9.329 12.9582 9.35 13.0749 9.35C13.2416 9.35 13.3916 9.28733 13.5249 9.162C13.6582 9.03733 13.7249 8.88333 13.7249 8.7C13.7249 8.58333 13.7042 8.479 13.6629 8.387C13.6209 8.29567 13.5666 8.21667 13.4999 8.15L9.99991 4.65C9.78324 4.41667 9.54591 4.25 9.28791 4.15C9.02924 4.05 8.75824 4 8.47491 4C8.19157 4 7.92491 4.05 7.67491 4.15C7.42491 4.25 7.18324 4.41667 6.94991 4.65L3.67491 7.95C3.49157 8.13333 3.34157 8.34567 3.22491 8.587C3.10824 8.829 3.04157 9.08333 3.02491 9.35C2.99157 9.56667 2.99591 9.779 3.03791 9.987C3.07924 10.1957 3.14991 10.3917 3.24991 10.575L2.14991 11.675C1.91657 11.3417 1.74591 10.975 1.63791 10.575C1.52924 10.175 1.48324 9.76667 1.49991 9.35C1.51657 8.88333 1.62057 8.43733 1.81191 8.012C2.00391 7.58733 2.26657 7.20833 2.59991 6.875L5.87491 3.6C6.24157 3.23333 6.64591 2.95833 7.08791 2.775C7.52924 2.59167 7.99157 2.5 8.47491 2.5C8.95824 2.5 9.42091 2.59167 9.86291 2.775C10.3042 2.95833 10.7082 3.23333 11.0749 3.6L11.6499 4.15L12.2249 3.6C12.5916 3.23333 12.9916 2.95833 13.4249 2.775C13.8582 2.59167 14.3249 2.5 14.8249 2.5C15.3082 2.5 15.7666 2.59167 16.1999 2.775C16.6332 2.95833 17.0332 3.23333 17.3999 3.6L21.3749 7.575C21.7416 7.925 22.0206 8.33333 22.2119 8.8C22.4039 9.26667 22.4999 9.74167 22.4999 10.225C22.4999 10.7083 22.4039 11.1707 22.2119 11.612C22.0206 12.054 21.7416 12.4583 21.3749 12.825L13.3749 20.8C13.1582 21.0167 12.9126 21.1833 12.6379 21.3C12.3626 21.4167 12.0749 21.475 11.7749 21.475Z" fill="#6A6A6B"/>
</g>
</svg>
