<svg width="24" height="48" viewBox="0 0 24 48" fill="none" xmlns="http://www.w3.org/2000/svg">
<mask id="mask0_480_3631" style="mask-type:alpha" maskUnits="userSpaceOnUse" x="0" y="0" width="24" height="24">
<rect width="24" height="24" fill="#D9D9D9"/>
</mask>
<g mask="url(#mask0_480_3631)">
<path d="M11.9998 21.2752L10.3998 19.8502C8.6998 18.3169 7.29581 16.9959 6.18781 15.8872C5.07914 14.7792 4.1998 13.7835 3.5498 12.9002C2.8998 12.0169 2.4458 11.2002 2.1878 10.4502C1.92914 9.7002 1.7998 8.93353 1.7998 8.1502C1.7998 6.51686 2.34147 5.15853 3.4248 4.0752C4.50814 2.99186 5.86647 2.4502 7.4998 2.4502C8.36647 2.4502 9.18747 2.6252 9.9628 2.9752C10.7375 3.3252 11.4165 3.8252 11.9998 4.4752C12.5665 3.8252 13.2415 3.3252 14.0248 2.9752C14.8081 2.6252 15.6331 2.4502 16.4998 2.4502C18.1165 2.4502 19.4705 2.99186 20.5618 4.0752C21.6538 5.15853 22.1998 6.51686 22.1998 8.1502C22.1998 8.93353 22.0705 9.6962 21.8118 10.4382C21.5538 11.1795 21.0998 11.9919 20.4498 12.8752C19.7998 13.7585 18.9165 14.7585 17.7998 15.8752C16.6831 16.9919 15.2748 18.3169 13.5748 19.8502L11.9998 21.2752ZM11.9998 18.2002C13.5831 16.7669 14.8915 15.5459 15.9248 14.5372C16.9581 13.5292 17.7708 12.6459 18.3628 11.8872C18.9541 11.1292 19.3621 10.4585 19.5868 9.8752C19.8121 9.29186 19.9248 8.71686 19.9248 8.1502C19.9248 7.16686 19.5998 6.3502 18.9498 5.7002C18.2998 5.0502 17.4831 4.7252 16.4998 4.7252C15.7331 4.7252 15.0208 4.94586 14.3628 5.3872C13.7041 5.8292 13.2498 6.39186 12.9998 7.0752H10.9998C10.7498 6.39186 10.2955 5.8292 9.6368 5.3872C8.9788 4.94586 8.26647 4.7252 7.4998 4.7252C6.51647 4.7252 5.6998 5.0502 5.0498 5.7002C4.3998 6.3502 4.0748 7.16686 4.0748 8.1502C4.0748 8.73353 4.19147 9.31686 4.4248 9.9002C4.65814 10.4835 5.0708 11.1502 5.6628 11.9002C6.25414 12.6502 7.06247 13.5335 8.0878 14.5502C9.11247 15.5669 10.4165 16.7835 11.9998 18.2002Z" fill="#FF5855"/>
</g>
<mask id="mask1_480_3631" style="mask-type:alpha" maskUnits="userSpaceOnUse" x="0" y="24" width="24" height="24">
<rect y="24" width="24" height="24" fill="#D9D9D9"/>
</mask>
<g mask="url(#mask1_480_3631)">
<path d="M12 45.0004L10.55 43.7004C8.86667 42.1837 7.475 40.8754 6.375 39.7754C5.275 38.6754 4.4 37.6877 3.75 36.8124C3.1 35.9377 2.646 35.1337 2.388 34.4004C2.12933 33.6671 2 32.9171 2 32.1504C2 30.5837 2.525 29.2754 3.575 28.2254C4.625 27.1754 5.93333 26.6504 7.5 26.6504C8.36667 26.6504 9.19167 26.8337 9.975 27.2004C10.7583 27.5671 11.4333 28.0837 12 28.7504C12.5667 28.0837 13.2417 27.5671 14.025 27.2004C14.8083 26.8337 15.6333 26.6504 16.5 26.6504C18.0667 26.6504 19.375 27.1754 20.425 28.2254C21.475 29.2754 22 30.5837 22 32.1504C22 32.9171 21.871 33.6671 21.613 34.4004C21.3543 35.1337 20.9 35.9377 20.25 36.8124C19.6 37.6877 18.725 38.6754 17.625 39.7754C16.525 40.8754 15.1333 42.1837 13.45 43.7004L12 45.0004Z" fill="#FF5855"/>
</g>
</svg>
