<svg width="16" height="16" viewBox="0 0 16 16" fill="none" xmlns="http://www.w3.org/2000/svg">
<mask id="mask0_182_3239" style="mask-type:alpha" maskUnits="userSpaceOnUse" x="0" y="0" width="16" height="16">
<rect width="16" height="16" fill="#D9D9D9"/>
</mask>
<g mask="url(#mask0_182_3239)">
<path d="M8.00016 13.9999L7.0335 13.1333C5.91127 12.1222 4.9835 11.2499 4.25016 10.5166C3.51683 9.78327 2.9335 9.12482 2.50016 8.54127C2.06683 7.95816 1.76416 7.42216 1.59216 6.93327C1.41972 6.44438 1.3335 5.94438 1.3335 5.43327C1.3335 4.38882 1.6835 3.5166 2.3835 2.8166C3.0835 2.1166 3.95572 1.7666 5.00016 1.7666C5.57794 1.7666 6.12794 1.88882 6.65016 2.13327C7.17238 2.37771 7.62238 2.72216 8.00016 3.1666C8.37794 2.72216 8.82794 2.37771 9.35016 2.13327C9.87238 1.88882 10.4224 1.7666 11.0002 1.7666C12.0446 1.7666 12.9168 2.1166 13.6168 2.8166C14.3168 3.5166 14.6668 4.38882 14.6668 5.43327C14.6668 5.94438 14.5808 6.44438 14.4088 6.93327C14.2364 7.42216 13.9335 7.95816 13.5002 8.54127C13.0668 9.12482 12.4835 9.78327 11.7502 10.5166C11.0168 11.2499 10.0891 12.1222 8.96683 13.1333L8.00016 13.9999Z" fill="#FF5855"/>
</g>
</svg>
