<svg width="90" height="24" viewBox="0 0 90 24" fill="none" xmlns="http://www.w3.org/2000/svg">
<ellipse cx="3.72083" cy="3.78211" rx="3.72083" ry="3.78211" transform="matrix(-0.707107 0.707107 0.707107 0.707107 11.9067 0.59375)" fill="#FF5855"/>
<ellipse cx="3.72083" cy="3.78211" rx="3.72083" ry="3.78211" transform="matrix(-0.707107 0.707107 0.707107 0.707107 5.85547 6.64551)" fill="#7B56EE"/>
<ellipse cx="3.72083" cy="3.78211" rx="3.72083" ry="3.78211" transform="matrix(-0.707107 0.707107 0.707107 0.707107 12.0063 12.7959)" fill="#FFBC2D"/>
<ellipse cx="3.72083" cy="3.78211" rx="3.72083" ry="3.78211" transform="matrix(-0.707107 0.707107 0.707107 0.707107 18.0581 6.74512)" fill="#6ECEC8"/>
<path d="M37.1758 15.7324C37.1758 15.8418 37.1562 15.9434 37.1172 16.0371C37.0781 16.1309 37.0234 16.2129 36.9531 16.2832C36.8867 16.3496 36.8066 16.4023 36.7129 16.4414C36.6191 16.4805 36.5176 16.5 36.4082 16.5H30.9121C30.7715 16.5 30.6191 16.4844 30.4551 16.4531C30.2949 16.418 30.1348 16.3652 29.9746 16.2949C29.8184 16.2246 29.668 16.1348 29.5234 16.0254C29.3789 15.9121 29.25 15.7773 29.1367 15.6211C29.0273 15.4609 28.9395 15.2773 28.873 15.0703C28.8066 14.8594 28.7734 14.623 28.7734 14.3613V10.2363C28.7734 10.0957 28.7891 9.94531 28.8203 9.78516C28.8555 9.62109 28.9082 9.46094 28.9785 9.30469C29.0488 9.14453 29.1406 8.99219 29.2539 8.84766C29.3672 8.70312 29.502 8.57617 29.6582 8.4668C29.8184 8.35352 30.002 8.26367 30.209 8.19727C30.416 8.13086 30.6504 8.09766 30.9121 8.09766H37.1055V9.62109H30.9121C30.7129 9.62109 30.5605 9.67383 30.4551 9.7793C30.3496 9.88477 30.2969 10.041 30.2969 10.248V14.3613C30.2969 14.5566 30.3496 14.709 30.4551 14.8184C30.5645 14.9238 30.7168 14.9766 30.9121 14.9766H35.6523V13.0664H31.5977V11.5312H36.4082C36.5176 11.5312 36.6191 11.5527 36.7129 11.5957C36.8066 11.6348 36.8867 11.6895 36.9531 11.7598C37.0234 11.8301 37.0781 11.9121 37.1172 12.0059C37.1562 12.0957 37.1758 12.1934 37.1758 12.2988V15.7324ZM47.5078 16.5H45.9844V14.4375H40.6289V16.5H39.1055V12.2988C39.1055 11.6855 39.2109 11.1211 39.4219 10.6055C39.6328 10.0898 39.9258 9.64648 40.3008 9.27539C40.6758 8.9043 41.1191 8.61523 41.6309 8.4082C42.1426 8.20117 42.7012 8.09766 43.3066 8.09766H46.7402C46.8457 8.09766 46.9453 8.11719 47.0391 8.15625C47.1328 8.19531 47.2148 8.25 47.2852 8.32031C47.3555 8.39062 47.4102 8.47266 47.4492 8.56641C47.4883 8.66016 47.5078 8.75977 47.5078 8.86523V16.5ZM40.6289 12.9141H45.9844V9.62109H43.3066C43.2598 9.62109 43.1602 9.62891 43.0078 9.64453C42.8594 9.65625 42.6855 9.68945 42.4863 9.74414C42.291 9.79883 42.084 9.88281 41.8652 9.99609C41.6465 10.1094 41.4453 10.2656 41.2617 10.4648C41.0781 10.6641 40.9258 10.9141 40.8047 11.2148C40.6875 11.5117 40.6289 11.873 40.6289 12.2988V12.9141ZM59.5625 16.5H58.0273V11.4961L55.3262 16.248C55.2598 16.3691 55.166 16.4609 55.0449 16.5234C54.9277 16.5859 54.8008 16.6172 54.6641 16.6172C54.5312 16.6172 54.4062 16.5859 54.2891 16.5234C54.1758 16.4609 54.0859 16.3691 54.0195 16.248L51.3066 11.4961V16.5H49.7832V8.74805C49.7832 8.57227 49.834 8.41602 49.9355 8.2793C50.041 8.14258 50.1777 8.05078 50.3457 8.00391C50.4277 7.98438 50.5098 7.97852 50.5918 7.98633C50.6738 7.99023 50.752 8.00781 50.8262 8.03906C50.9043 8.06641 50.9746 8.10742 51.0371 8.16211C51.0996 8.21289 51.1523 8.27539 51.1953 8.34961L54.6641 14.3789L58.1328 8.34961C58.2227 8.20117 58.3457 8.0957 58.502 8.0332C58.6621 7.9707 58.8281 7.96094 59 8.00391C59.1641 8.05078 59.2988 8.14258 59.4043 8.2793C59.5098 8.41602 59.5625 8.57227 59.5625 8.74805V16.5ZM68.7461 13.0664H63.9355V11.5312H68.7461V13.0664ZM69.4316 16.5H63.9355C63.7246 16.5 63.4941 16.4629 63.2441 16.3887C62.9941 16.3145 62.7617 16.1934 62.5469 16.0254C62.3359 15.8535 62.1582 15.6328 62.0137 15.3633C61.873 15.0898 61.8027 14.7559 61.8027 14.3613V8.86523C61.8027 8.75977 61.8223 8.66016 61.8613 8.56641C61.9004 8.47266 61.9531 8.39062 62.0195 8.32031C62.0898 8.25 62.1719 8.19531 62.2656 8.15625C62.3594 8.11719 62.4609 8.09766 62.5703 8.09766H69.4316V9.62109H63.3262V14.3613C63.3262 14.5605 63.3789 14.7129 63.4844 14.8184C63.5898 14.9238 63.7441 14.9766 63.9473 14.9766H69.4316V16.5ZM79.002 9.62109H75.6445V16.5H74.1211V9.62109H70.7578V8.09766H79.002V9.62109ZM89.3281 13.1016C89.3281 13.6133 89.2402 14.084 89.0645 14.5137C88.8887 14.9434 88.6445 15.3145 88.332 15.627C88.0195 15.9395 87.6484 16.1836 87.2188 16.3594C86.793 16.5312 86.3281 16.6172 85.8242 16.6172H83.7617C83.2578 16.6172 82.791 16.5312 82.3613 16.3594C81.9316 16.1836 81.5605 15.9395 81.248 15.627C80.9355 15.3145 80.6895 14.9434 80.5098 14.5137C80.334 14.084 80.2461 13.6133 80.2461 13.1016V11.4961C80.2461 10.9883 80.334 10.5195 80.5098 10.0898C80.6895 9.65625 80.9355 9.28516 81.248 8.97656C81.5605 8.66406 81.9316 8.41992 82.3613 8.24414C82.791 8.06836 83.2578 7.98047 83.7617 7.98047H85.8242C86.3281 7.98047 86.793 8.06836 87.2188 8.24414C87.6484 8.41992 88.0195 8.66406 88.332 8.97656C88.6445 9.28516 88.8887 9.65625 89.0645 10.0898C89.2402 10.5195 89.3281 10.9883 89.3281 11.4961V13.1016ZM87.8047 11.4961C87.8047 11.1953 87.7559 10.9238 87.6582 10.6816C87.5645 10.4355 87.4297 10.2266 87.2539 10.0547C87.082 9.87891 86.873 9.74414 86.627 9.65039C86.3848 9.55273 86.1172 9.50391 85.8242 9.50391H83.7617C83.4648 9.50391 83.1934 9.55273 82.9473 9.65039C82.7051 9.74414 82.4961 9.87891 82.3203 10.0547C82.1445 10.2266 82.0078 10.4355 81.9102 10.6816C81.8164 10.9238 81.7695 11.1953 81.7695 11.4961V13.1016C81.7695 13.4023 81.8164 13.6758 81.9102 13.9219C82.0078 14.1641 82.1445 14.373 82.3203 14.5488C82.4961 14.7207 82.7051 14.8555 82.9473 14.9531C83.1934 15.0469 83.4648 15.0938 83.7617 15.0938H85.8125C86.1094 15.0938 86.3789 15.0469 86.6211 14.9531C86.8672 14.8555 87.0781 14.7207 87.2539 14.5488C87.4297 14.373 87.5645 14.1641 87.6582 13.9219C87.7559 13.6758 87.8047 13.4023 87.8047 13.1016V11.4961Z" fill="white"/>
</svg>
