<svg width="130" height="35" viewBox="0 0 130 35" fill="none" xmlns="http://www.w3.org/2000/svg">
<ellipse rx="4.18593" ry="4.25487" transform="matrix(-0.707107 0.707107 0.707107 0.707107 11.9438 10.6355)" fill="#FF5855"/>
<ellipse rx="4.18593" ry="4.25487" transform="matrix(-0.707107 0.707107 0.707107 0.707107 5.13566 17.4432)" fill="#7B56EE"/>
<ellipse rx="4.18593" ry="4.25487" transform="matrix(-0.707107 0.707107 0.707107 0.707107 12.0556 24.3631)" fill="#FFBC2D"/>
<ellipse rx="4.18593" ry="4.25487" transform="matrix(-0.707107 0.707107 0.707107 0.707107 18.8637 17.5555)" fill="#6ECEC8"/>
<path d="M44.1255 23.7207C44.1255 23.903 44.0929 24.0723 44.0278 24.2285C43.9627 24.3848 43.8716 24.5215 43.7544 24.6387C43.6437 24.7493 43.5103 24.8372 43.354 24.9023C43.1978 24.9674 43.0285 25 42.8462 25H33.686C33.4517 25 33.1978 24.974 32.9243 24.9219C32.6574 24.8633 32.3905 24.7754 32.1235 24.6582C31.8631 24.541 31.6125 24.3913 31.3716 24.209C31.1307 24.0202 30.9159 23.7956 30.7271 23.5352C30.5448 23.2682 30.3983 22.9622 30.2876 22.6172C30.1769 22.2656 30.1216 21.8717 30.1216 21.4355V14.5605C30.1216 14.3262 30.1476 14.0755 30.1997 13.8086C30.2583 13.5352 30.3462 13.2682 30.4634 13.0078C30.5806 12.7409 30.7336 12.487 30.9224 12.2461C31.1112 12.0052 31.3358 11.7936 31.5962 11.6113C31.8631 11.4225 32.1691 11.2728 32.5142 11.1621C32.8592 11.0514 33.2498 10.9961 33.686 10.9961H44.0083V13.5352H33.686C33.354 13.5352 33.1001 13.623 32.9243 13.7988C32.7485 13.9746 32.6606 14.235 32.6606 14.5801V21.4355C32.6606 21.7611 32.7485 22.015 32.9243 22.1973C33.1066 22.373 33.3605 22.4609 33.686 22.4609H41.5864V19.2773H34.8286V16.7188H42.8462C43.0285 16.7188 43.1978 16.7546 43.354 16.8262C43.5103 16.8913 43.6437 16.9824 43.7544 17.0996C43.8716 17.2168 43.9627 17.3535 44.0278 17.5098C44.0929 17.6595 44.1255 17.8223 44.1255 17.998V23.7207ZM61.0122 25H58.4731V21.5625H49.5474V25H47.0083V17.998C47.0083 16.9759 47.1841 16.0352 47.5356 15.1758C47.8872 14.3164 48.3755 13.5775 49.0005 12.959C49.6255 12.3405 50.3644 11.8587 51.2173 11.5137C52.0701 11.1686 53.0011 10.9961 54.0103 10.9961H59.7329C59.9087 10.9961 60.0747 11.0286 60.231 11.0938C60.3872 11.1589 60.5239 11.25 60.6411 11.3672C60.7583 11.4844 60.8494 11.6211 60.9146 11.7773C60.9797 11.9336 61.0122 12.0996 61.0122 12.2754V25ZM49.5474 19.0234H58.4731V13.5352H54.0103C53.9321 13.5352 53.7661 13.5482 53.5122 13.5742C53.2648 13.5938 52.9751 13.6491 52.6431 13.7402C52.3175 13.8314 51.9725 13.9714 51.6079 14.1602C51.2433 14.349 50.908 14.6094 50.6021 14.9414C50.2961 15.2734 50.0422 15.6901 49.8403 16.1914C49.645 16.6862 49.5474 17.2884 49.5474 17.998V19.0234ZM80.77 25H78.2114V16.6602L73.7095 24.5801C73.5988 24.7819 73.4425 24.9349 73.2407 25.0391C73.0454 25.1432 72.8338 25.1953 72.606 25.1953C72.3846 25.1953 72.1763 25.1432 71.981 25.0391C71.7922 24.9349 71.6424 24.7819 71.5317 24.5801L67.0103 16.6602V25H64.4712V12.0801C64.4712 11.7871 64.5558 11.5267 64.7251 11.2988C64.9009 11.071 65.1287 10.918 65.4087 10.8398C65.5454 10.8073 65.6821 10.7975 65.8188 10.8105C65.9556 10.8171 66.0858 10.8464 66.2095 10.8984C66.3397 10.944 66.4569 11.0124 66.561 11.1035C66.6652 11.1882 66.7531 11.2923 66.8247 11.416L72.606 21.4648L78.3872 11.416C78.5369 11.1686 78.742 10.9928 79.0024 10.8887C79.2694 10.7845 79.5461 10.7682 79.8325 10.8398C80.106 10.918 80.3306 11.071 80.5063 11.2988C80.6821 11.5267 80.77 11.7871 80.77 12.0801V25ZM95.7427 19.2773H87.7251V16.7188H95.7427V19.2773ZM96.8853 25H87.7251C87.3735 25 86.9894 24.9382 86.5728 24.8145C86.1561 24.6908 85.7687 24.4889 85.4106 24.209C85.0591 23.9225 84.7629 23.5547 84.522 23.1055C84.2876 22.6497 84.1704 22.0931 84.1704 21.4355V12.2754C84.1704 12.0996 84.203 11.9336 84.2681 11.7773C84.3332 11.6211 84.4211 11.4844 84.5317 11.3672C84.6489 11.25 84.7856 11.1589 84.9419 11.0938C85.0981 11.0286 85.2674 10.9961 85.4497 10.9961H96.8853V13.5352H86.7095V21.4355C86.7095 21.7676 86.7974 22.0215 86.9731 22.1973C87.1489 22.373 87.4061 22.4609 87.7446 22.4609H96.8853V25ZM112.502 13.5352H106.907V25H104.368V13.5352H98.7622V10.9961H112.502V13.5352ZM129.379 19.3359C129.379 20.1888 129.233 20.9733 128.94 21.6895C128.647 22.4056 128.24 23.0241 127.719 23.5449C127.198 24.0658 126.58 24.4727 125.864 24.7656C125.154 25.0521 124.379 25.1953 123.54 25.1953H120.102C119.262 25.1953 118.484 25.0521 117.768 24.7656C117.052 24.4727 116.433 24.0658 115.913 23.5449C115.392 23.0241 114.982 22.4056 114.682 21.6895C114.389 20.9733 114.243 20.1888 114.243 19.3359V16.6602C114.243 15.8138 114.389 15.0326 114.682 14.3164C114.982 13.5938 115.392 12.9753 115.913 12.4609C116.433 11.9401 117.052 11.5332 117.768 11.2402C118.484 10.9473 119.262 10.8008 120.102 10.8008H123.54C124.379 10.8008 125.154 10.9473 125.864 11.2402C126.58 11.5332 127.198 11.9401 127.719 12.4609C128.24 12.9753 128.647 13.5938 128.94 14.3164C129.233 15.0326 129.379 15.8138 129.379 16.6602V19.3359ZM126.84 16.6602C126.84 16.1589 126.759 15.7064 126.596 15.3027C126.44 14.8926 126.215 14.5443 125.922 14.2578C125.636 13.9648 125.288 13.7402 124.877 13.584C124.474 13.4212 124.028 13.3398 123.54 13.3398H120.102C119.607 13.3398 119.155 13.4212 118.745 13.584C118.341 13.7402 117.993 13.9648 117.7 14.2578C117.407 14.5443 117.179 14.8926 117.016 15.3027C116.86 15.7064 116.782 16.1589 116.782 16.6602V19.3359C116.782 19.8372 116.86 20.293 117.016 20.7031C117.179 21.1068 117.407 21.4551 117.7 21.748C117.993 22.0345 118.341 22.2591 118.745 22.4219C119.155 22.5781 119.607 22.6562 120.102 22.6562H123.52C124.015 22.6562 124.464 22.5781 124.868 22.4219C125.278 22.2591 125.629 22.0345 125.922 21.748C126.215 21.4551 126.44 21.1068 126.596 20.7031C126.759 20.293 126.84 19.8372 126.84 19.3359V16.6602Z" fill="white"/>
</svg>
