<svg xmlns="http://www.w3.org/2000/svg" width="201" height="135" viewBox="0 0 201 135" fill="none">
<path d="M77.8344 88.37L85.1568 92.8476L87.4429 94.2719L96.3348 100.551L103.238 102.487L116.672 107.857L133.94 110.76L146.399 108.492L156.648 106.219L165.383 101.059L174.012 93.9124L182.123 87.1611L188.36 79.7909L193.043 74.0922L192.079 67.7051L187.191 55.2199L182.578 47.3622L178.329 43.131L172.286 38.7324L162.284 31.825L153.364 27.6828L144.588 24.6439L139.471 24.3279L129.727 25.437L115.471 24.8335L104.064 29.2994L100.446 28.3967L83.8316 37.2206L73.7974 42.9852L71.2771 48.3206L69.2363 57.3336L68.1142 68.6929L69.0407 79.1534L70.6482 83.2593L77.8344 88.37Z" fill="#FFBA29"/>
<path d="M86.0922 33.9197L91.2341 29.3941L91.8018 28.8819L93.5503 28.1974L94.5318 28.0064L95.7126 27.834L96.8758 27.8618L97.9885 28.0059L98.9019 28.1315L100.363 28.4293L101.556 29.0251L103.479 30.0118L104.473 30.5889L105.815 31.3196L107.456 32.3204L108.747 33.1675L110.188 34.1496L112.737 36.2442L114.109 37.5429L115.101 38.6042L115.661 39.5445L115.823 40.4476L115.934 41.4672L115.846 42.4681L115.573 43.7344L115.235 44.8331L114.715 45.713L114.08 46.5417L113.229 47.0679L111.481 47.7525L110.333 48.0086L109.369 47.9994L108.372 47.9065L107.277 47.5621L105.536 46.7942L104.741 46.2356L103.714 45.5747L102.92 45.0161L102.241 44.5088L101.264 43.7314L100.205 42.9867L99.377 42.3444L98.6478 41.9534L97.4518 41.8418L96.2029 42.3308L95.3854 42.9407L94.6512 43.5181L94.2173 43.8812L93.531 44.8264L93.2939 45.6923L93.2713 46.8608L93.2335 47.7453L93.2966 48.3971L93.6649 47.8663L94.1165 47.303L94.6514 46.707L95.1686 46.3112L96.8339 45.6593L97.7321 45.5009L99.4453 45.2167L100.757 45.3795L101.918 45.8914L102.995 46.436L103.773 47.1947L104.631 48.405L105.057 49.4943L105.284 50.565L105.312 51.6172L105.191 52.5343L104.936 53.6004L104.464 54.8481L104.046 55.4952L102.943 56.6033L100.612 57.5161L99.3476 57.7211L98.6991 57.7817L97.7201 57.4885L96.8572 57.2465L96.0119 56.8044L95.101 56.1946L94.5056 55.6547L93.8773 55.0309L93.2338 54.1232L92.7417 52.8663L92.6786 52.2146L92.565 51.6792L92.4137 52.0284L92.0781 52.6429L91.7249 53.4577L91.3566 53.9884L90.6728 54.4494L89.1741 55.0361L88.1926 55.2271L86.979 55.3157L86.0152 55.3065L85.0185 55.2135L84.0875 55.2881L83.2397 55.3301L81.3776 55.4793L80.497 55.4375L79.518 55.1444L78.7712 54.9536L78.042 54.5626L77.396 54.1391L76.8005 53.5991L76.4372 53.1615L75.9754 52.4726L75.5969 51.7511L75.2688 50.9131L74.9912 49.9588L74.8297 49.0557L74.8675 48.1712L75.0214 47.3378L75.3594 46.2391L75.6294 45.457L75.9321 44.7586L77.4383 42.7194L80.4962 39.4929L82.6332 37.5932L86.0922 33.9197Z" fill="#664500"/>
<path d="M118.791 51.4619L119.078 50.4796L119.28 50.014L119.984 48.8687L120.251 48.5708L120.953 47.9096L121.336 47.6628L122.469 47.1227L123.768 46.5173L125.202 45.763L126.985 44.6781L128.986 43.4115L130.603 42.3918L131.971 41.4699L133.205 40.697L134.804 39.8774L139.967 37.8564L140.1 37.7074L140.252 37.3582L140.519 37.0602L140.819 36.8461L141.369 36.5341L146.698 34.4478L147.263 34.4198L148.659 34.55L149.173 34.6384L149.605 34.7594L150.069 34.9642L150.798 35.3551L151.411 35.6949L152.057 36.1185L152.471 36.4396L152.918 36.8446L153.579 37.5521L153.793 37.8547L154.106 38.4087L154.336 38.9952L154.45 39.5306L154.48 40.0985L154.46 40.7829L154.354 41.984L154.218 42.6171L153.998 43.2829L153.746 43.8648L153.193 44.661L152.608 45.3733L152.04 45.8855L151.44 46.3138L150.123 47.1194L148.69 47.8737L147.64 48.3813L146.84 48.791L146.54 49.0052L147.262 50.8487L147.474 51.6354L147.552 52.5711L147.431 53.4882L147.244 54.2378L147.007 55.1037L146.603 56.0348L146.235 56.5656L145.733 57.2453L145.032 57.9065L144.514 58.3023L143.349 58.7586L142.483 59.0008L141.951 59.1126L140.987 59.1034L140.472 59.015L139.842 58.8754L138.979 58.6334L138.05 58.2239L137.553 57.9353L137.288 57.7491L136.874 57.428L136.577 57.158L136.246 56.8042L135.999 56.4178L135.57 55.8127L135.189 55.5753L133.19 56.3577L132.423 56.8512L129.991 57.9967L126.494 59.3658L125.263 59.6546L123.868 59.5244L122.805 59.2639L121.645 58.7519L120.883 58.2771L120.105 57.5184L119.313 56.4757L118.657 54.7998L118.531 53.4964L118.619 52.4954L118.791 51.4619Z" fill="#664500"/>
<path d="M121.971 79.2076L107.705 80.5407L106.807 80.6991L105.793 80.8063L104.862 80.8809L103.8 80.6203L103.136 80.397L102.059 79.8524L101.562 79.5638L100.85 78.9727L100.222 78.3489L99.7271 77.5762L99.3007 76.4869L99.0231 75.5326L98.9271 74.797L98.9674 73.4284L99.086 72.9954L99.4241 71.8967L99.6587 71.5149L99.9438 71.0168L100.178 70.635L100.58 70.188L100.897 69.7737L101.331 69.4105L101.965 69.0659L103.347 68.428L105.578 67.748L107.856 67.4358L111.464 67.0862L113.558 67.0394L120.225 66.6522L126.807 66.2977L128.021 66.2091L135.136 65.7427L136.633 65.6401L143.248 65.3693L149.432 64.9775L155.019 64.5299L160.703 64.3337L165.439 64.4123L169.062 64.3467L173.218 64.1693L175.512 64.141L177.106 64.2898L178.832 64.7738L179.826 65.3509L181.282 66.617L181.842 67.5573L182.367 68.898L182.511 70.0013L182.405 71.2024L182.067 72.3011L181.512 73.5814L180.909 74.494L180.458 75.0573L179.64 75.6673L178.674 76.1422L177.425 76.6312L176.194 76.92L175.096 77.0598L171.622 77.2604L166.404 77.1772L161.784 77.1498L154.404 77.43L144.894 78.1574L133.424 78.7826L123.301 79.1702L121.971 79.2076Z" fill="#664500"/>
<path d="M112.541 93.6264L113.262 95.4699L124.003 91.2648L127.818 89.4813L131.249 87.9446L134.898 86.2264L136.914 85.2438L139.962 83.9539L141.894 83.004L143.66 82.1193L147.241 80.7176L149.221 80.1354L150.786 79.7162L151.633 79.6742L152.63 79.7672L153.591 80.2606L154.469 80.7865L155.363 81.5965L156.057 82.3878L156.98 83.7657L157.275 84.5198L157.437 85.4229L157.515 86.3587L157.46 87.4434L157.255 88.3931L156.917 89.4918L156.264 90.5207L155.361 91.6474L154.609 92.425L154.041 92.9371L153.108 93.4959L145.364 96.5275L138.986 99.1213L136.438 100.216L134.023 101.161L134.321 101.431L134.866 102.087L135.527 102.795L136.402 103.805L137.159 105.248L137.586 106.337L137.912 107.659L138.02 109.163L137.798 110.313L137.46 111.412L136.774 112.357L135.424 113.079L133.842 113.698L132.111 114.182L131.147 114.173L130.085 113.912L128.99 113.568L127.58 113.154L126.285 112.791L125.405 112.749L124.839 112.777L123.989 113.303L123.389 113.732L122.42 114.691L121.486 115.25L120.903 115.478L120.005 115.636L119.607 115.599L118.078 115.618L116.215 115.767L113.922 115.795L111.646 115.623L109.537 115.386L108.906 115.246L107.564 114.516L106.569 113.939L105.525 113.478L104.563 112.984L103.453 112.356L102.742 111.765L101.586 110.285L101.192 109.279L101.114 108.343L101.134 107.659L101.19 106.574L101.212 105.406L101.202 104.154L101.058 103.05L100.7 101.644L99.4204 98.3765L98.7618 97.1848L98.184 96.4447L97.4245 95.4857L96.8466 94.7456L96.072 93.5027L95.7111 92.581L95.4007 91.5429L95.272 90.7235L95.2946 89.555L95.5166 88.4051L95.9707 87.3576L96.5081 86.2775L97.1767 85.5326L98.1102 84.9738L99.2103 84.3499L101.09 84.0005L102.586 83.8979L104.378 84.5494L106.482 85.7549L107.956 86.8208L109.311 88.3197L110.401 89.6324L111.703 91.7318L112.541 93.6264Z" fill="#F4900C"/>
<mask id="mask0_447_3334" style="mask-type:alpha" maskUnits="userSpaceOnUse" x="0" y="57" width="78" height="78">
<path d="M0 79.6992L54.6727 57.0003L77.3716 111.673L22.6989 134.372L0 79.6992Z" fill="#D9D9D9"/>
</mask>
<g mask="url(#mask0_447_3334)">
<path d="M28.3352 118.679C26.3988 119.483 24.6195 119.432 22.9971 118.527C21.3742 117.62 20.2936 116.143 19.7554 114.096L15.054 96.0176C14.4499 93.5977 14.6856 91.2965 15.7611 89.114C16.8352 86.9321 18.5112 85.3683 20.7892 84.4225L43.3417 75.0592C45.6197 74.1134 47.9105 74.0303 50.2141 74.8099C52.5191 75.5889 54.3154 77.0464 55.6029 79.1826L65.0882 95.2747C66.1579 97.1007 66.4412 98.9087 65.938 100.699C65.4342 102.487 64.2141 103.783 62.2778 104.587C61.4805 104.918 60.6809 105.083 59.8789 105.081C59.0776 105.081 58.274 104.914 57.468 104.581L50.2144 101.584L34.7238 108.015L31.7263 115.268C31.3932 116.074 30.9439 116.761 30.3784 117.329C29.8136 117.898 29.1325 118.348 28.3352 118.679ZM51.0219 93.2362C51.6674 92.9682 52.1172 92.5251 52.3715 91.9067C52.6279 91.2893 52.6221 90.6578 52.3542 90.0124C52.0862 89.3669 51.6427 88.9163 51.0237 88.6605C50.4069 88.4056 49.7758 88.4122 49.1303 88.6801C48.4849 88.9481 48.0347 89.3905 47.7798 90.0073C47.524 90.6263 47.5301 91.2585 47.7981 91.9039C48.0661 92.5494 48.5092 92.9992 49.1276 93.2535C49.745 93.5099 50.3765 93.5042 51.0219 93.2362ZM43.6285 88.2937C44.2739 88.0257 44.7245 87.5822 44.9803 86.9632C45.2352 86.3464 45.2287 85.7153 44.9607 85.0699C44.6928 84.4244 44.25 83.9735 43.6326 83.7171C43.0142 83.4628 42.3824 83.4696 41.7369 83.7376C41.0915 84.0056 40.6413 84.448 40.3864 85.0648C40.1306 85.6838 40.1367 86.316 40.4047 86.9614C40.6726 87.6069 41.1158 88.0567 41.7341 88.311C42.3516 88.5674 42.983 88.5616 43.6285 88.2937ZM29.9501 101.985L33.3672 100.566L31.7121 96.5795L35.6986 94.9244L34.2799 91.5073L30.2934 93.1624L28.6382 89.1759L25.2212 90.5946L26.8763 94.5811L22.8898 96.2362L24.3085 99.6533L28.295 97.9982L29.9501 101.985Z" fill="#FF5855"/>
</g>
<mask id="mask1_447_3334" style="mask-type:alpha" maskUnits="userSpaceOnUse" x="17" y="28" width="46" height="46">
<path d="M24.3545 28L62.6008 35.3541L55.2467 73.6004L17.0004 66.2463L24.3545 28Z" fill="#D9D9D9"/>
</mask>
<g mask="url(#mask1_447_3334)">
<path d="M25.7831 59.6731C24.4285 59.4126 23.47 58.7397 22.9075 57.6544C22.3452 56.5679 22.2873 55.3653 22.7337 54.0465L26.7051 42.4163C27.2506 40.8687 28.2141 39.6906 29.5957 38.8822C30.9763 38.0735 32.4634 37.8223 34.057 38.1288L49.8336 41.1623C51.4271 41.4687 52.7151 42.2535 53.6973 43.5165C54.6805 44.7797 55.1385 46.231 55.0711 47.8706L54.4462 60.1443C54.3717 61.5346 53.8719 62.63 52.9468 63.4304C52.0219 64.2297 50.8822 64.4992 49.5277 64.2387C48.9699 64.1315 48.4712 63.932 48.0315 63.6404C47.5916 63.3498 47.2108 62.967 46.889 62.492L43.9928 58.2169L33.1564 56.1333L28.8814 59.0294C28.4064 59.3512 27.9107 59.5655 27.3944 59.6722C26.878 59.78 26.3408 59.7803 25.7831 59.6731ZM47.4619 53.9264C47.9134 54.0132 48.321 53.933 48.6848 53.6856C49.0494 53.4396 49.2751 53.0908 49.3619 52.6392C49.4487 52.1877 49.3685 51.7796 49.1214 51.4148C48.8751 51.0512 48.5262 50.826 48.0747 50.7392C47.6232 50.6524 47.2157 50.7321 46.8521 50.9784C46.4873 51.2255 46.2615 51.5749 46.1747 52.0264C46.0879 52.4779 46.1681 52.8855 46.4155 53.2493C46.6615 53.6139 47.0103 53.8396 47.4619 53.9264ZM45.1939 48.5328C45.6455 48.6196 46.0536 48.5394 46.4184 48.2923C46.782 48.046 47.0071 47.6971 47.094 47.2456C47.1808 46.7941 47.1011 46.386 46.8551 46.0214C46.6077 45.6577 46.2583 45.4324 45.8068 45.3456C45.3553 45.2588 44.9477 45.3385 44.5842 45.5848C44.2194 45.8319 43.9936 46.1813 43.9068 46.6328C43.8199 47.0843 43.9002 47.4919 44.1475 47.8557C44.3936 48.2203 44.7424 48.446 45.1939 48.5328ZM32.7211 51.092L35.1115 51.5517L35.6477 48.7629L38.4365 49.2991L38.8962 46.9087L36.1074 46.3725L36.6436 43.5837L34.2532 43.124L33.717 45.9128L30.9282 45.3766L30.4686 47.767L33.2573 48.3032L32.7211 51.092Z" fill="#5275ED"/>
</g>
</svg>