<svg width="24" height="24" viewBox="0 0 24 24" fill="none" xmlns="http://www.w3.org/2000/svg">
<mask id="mask0_182_5822" style="mask-type:alpha" maskUnits="userSpaceOnUse" x="0" y="0" width="24" height="24">
<rect width="24" height="24" fill="#D9D9D9"/>
</mask>
<g mask="url(#mask0_182_5822)">
<path d="M12 11.7002C11.0333 11.7002 10.2083 11.3542 9.525 10.6622C8.84167 9.97086 8.5 9.1502 8.5 8.2002C8.5 7.23353 8.84167 6.40853 9.525 5.7252C10.2083 5.04186 11.0333 4.7002 12 4.7002C12.9667 4.7002 13.7917 5.04186 14.475 5.7252C15.1583 6.40853 15.5 7.23353 15.5 8.2002C15.5 9.1502 15.1583 9.97086 14.475 10.6622C13.7917 11.3542 12.9667 11.7002 12 11.7002ZM4.5 19.3002V17.0752C4.5 16.5919 4.63333 16.1419 4.9 15.7252C5.16667 15.3085 5.525 14.9835 5.975 14.7502C6.95833 14.2669 7.95433 13.9042 8.963 13.6622C9.971 13.4209 10.9833 13.3002 12 13.3002C13.0167 13.3002 14.0293 13.4209 15.038 13.6622C16.046 13.9042 17.0417 14.2669 18.025 14.7502C18.475 14.9835 18.8333 15.3085 19.1 15.7252C19.3667 16.1419 19.5 16.5919 19.5 17.0752V19.3002H4.5ZM6 17.8002H18V17.0752C18 16.8752 17.9417 16.6919 17.825 16.5252C17.7083 16.3585 17.55 16.2169 17.35 16.1002C16.4833 15.6835 15.6043 15.3625 14.713 15.1372C13.821 14.9125 12.9167 14.8002 12 14.8002C11.0833 14.8002 10.179 14.9125 9.287 15.1372C8.39567 15.3625 7.51667 15.6835 6.65 16.1002C6.45 16.2169 6.29167 16.3585 6.175 16.5252C6.05833 16.6919 6 16.8752 6 17.0752V17.8002ZM12 10.2002C12.55 10.2002 13.021 10.0042 13.413 9.6122C13.8043 9.22086 14 8.7502 14 8.2002C14 7.6502 13.8043 7.1792 13.413 6.7872C13.021 6.39586 12.55 6.2002 12 6.2002C11.45 6.2002 10.9793 6.39586 10.588 6.7872C10.196 7.1792 10 7.6502 10 8.2002C10 8.7502 10.196 9.22086 10.588 9.6122C10.9793 10.0042 11.45 10.2002 12 10.2002Z" fill="#6A6A6B"/>
</g>
</svg>
