<svg width="96" height="96" viewBox="0 0 96 96" fill="none" xmlns="http://www.w3.org/2000/svg">
<mask id="mask0_696_4164" style="mask-type:alpha" maskUnits="userSpaceOnUse" x="0" y="0" width="96" height="96">
<rect width="96" height="96" fill="#D9D9D9"/>
</mask>
<g mask="url(#mask0_696_4164)">
<path d="M28 88C22.4667 88 17.7507 86.0507 13.852 82.152C9.95067 78.2507 8 73.5333 8 68C8 62.4667 9.95067 57.7493 13.852 53.848C17.7507 49.9493 22.4667 48 28 48C33.5333 48 38.2507 49.9493 42.152 53.848C46.0507 57.7493 48 62.4667 48 68C48 73.5333 46.0507 78.2507 42.152 82.152C38.2507 86.0507 33.5333 88 28 88ZM82.4 84L56.8 58.4C56 57.5333 55.1493 56.6507 54.248 55.752C53.3493 54.8507 52.4667 54 51.6 53.2C54.1333 51.6 56.1667 49.4667 57.7 46.8C59.2333 44.1333 60 41.2 60 38C60 33 58.2507 28.7493 54.752 25.248C51.2507 21.7493 47 20 42 20C37 20 32.7493 21.7493 29.248 25.248C25.7493 28.7493 24 33 24 38C24 38.4 24.0173 38.7827 24.052 39.148C24.084 39.516 24.1333 39.9 24.2 40.3C23 40.4333 21.6827 40.7 20.248 41.1C18.816 41.5 17.5333 41.9667 16.4 42.5C16.2667 41.7667 16.1667 41.0333 16.1 40.3C16.0333 39.5667 16 38.8 16 38C16 30.7333 18.5173 24.5827 23.552 19.548C28.584 14.516 34.7333 12 42 12C49.2667 12 55.4173 14.516 60.452 19.548C65.484 24.5827 68 30.7333 68 38C68 40.8667 67.5507 43.5827 66.652 46.148C65.7507 48.716 64.5 51.0667 62.9 53.2L88 78.4L82.4 84ZM20.9 77.9L28 70.8L35 77.9L37.9 75.1L30.8 68L37.9 60.9L35.1 58.1L28 65.2L20.9 58.1L18.1 60.9L25.2 68L18.1 75.1L20.9 77.9Z" fill="#202020"/>
</g>
</svg>
