<svg width="16" height="16" viewBox="0 0 16 16" fill="none" xmlns="http://www.w3.org/2000/svg">
<mask id="mask0_182_5280" style="mask-type:alpha" maskUnits="userSpaceOnUse" x="0" y="0" width="16" height="16">
<rect width="16" height="16" fill="#D9D9D9"/>
</mask>
<g mask="url(#mask0_182_5280)">
<path d="M5.3335 7.33301C5.52238 7.33301 5.68083 7.26901 5.80883 7.14101C5.93638 7.01345 6.00016 6.85523 6.00016 6.66634C6.00016 6.47745 5.93638 6.31901 5.80883 6.19101C5.68083 6.06345 5.52238 5.99967 5.3335 5.99967C5.14461 5.99967 4.98616 6.06345 4.85816 6.19101C4.73061 6.31901 4.66683 6.47745 4.66683 6.66634C4.66683 6.85523 4.73061 7.01345 4.85816 7.14101C4.98616 7.26901 5.14461 7.33301 5.3335 7.33301ZM8.00016 7.33301C8.18905 7.33301 8.3475 7.26901 8.4755 7.14101C8.60305 7.01345 8.66683 6.85523 8.66683 6.66634C8.66683 6.47745 8.60305 6.31901 8.4755 6.19101C8.3475 6.06345 8.18905 5.99967 8.00016 5.99967C7.81127 5.99967 7.65305 6.06345 7.5255 6.19101C7.3975 6.31901 7.3335 6.47745 7.3335 6.66634C7.3335 6.85523 7.3975 7.01345 7.5255 7.14101C7.65305 7.26901 7.81127 7.33301 8.00016 7.33301ZM10.6668 7.33301C10.8557 7.33301 11.0139 7.26901 11.1415 7.14101C11.2695 7.01345 11.3335 6.85523 11.3335 6.66634C11.3335 6.47745 11.2695 6.31901 11.1415 6.19101C11.0139 6.06345 10.8557 5.99967 10.6668 5.99967C10.4779 5.99967 10.3197 6.06345 10.1922 6.19101C10.0642 6.31901 10.0002 6.47745 10.0002 6.66634C10.0002 6.85523 10.0642 7.01345 10.1922 7.14101C10.3197 7.26901 10.4779 7.33301 10.6668 7.33301ZM1.3335 14.6663V2.66634C1.3335 2.29967 1.46416 1.98567 1.7255 1.72434C1.98638 1.46345 2.30016 1.33301 2.66683 1.33301H13.3335C13.7002 1.33301 14.0142 1.46345 14.2755 1.72434C14.5364 1.98567 14.6668 2.29967 14.6668 2.66634V10.6663C14.6668 11.033 14.5364 11.347 14.2755 11.6083C14.0142 11.8692 13.7002 11.9997 13.3335 11.9997H4.00016L1.3335 14.6663Z" fill="white"/>
</g>
</svg>
